<?xml version="1.0" encoding="utf-8"?>
<!-- Generator: Adobe Illustrator 16.0.0, SVG Export Plug-In . SVG Version: 6.00 Build 0)  -->
<!DOCTYPE svg PUBLIC "-//W3C//DTD SVG 1.1//EN" "http://www.w3.org/Graphics/SVG/1.1/DTD/svg11.dtd">
<svg version="1.1" xmlns="http://www.w3.org/2000/svg" xmlns:xlink="http://www.w3.org/1999/xlink" x="0px" y="0px"
	 width="943.49px" height="186.008px" viewBox="0 0 943.49 186.008" enable-background="new 0 0 943.49 186.008"
	 xml:space="preserve">
<g id="Layer_1">
	<defs>
		<filter id="Adobe_OpacityMaskFilter" filterUnits="userSpaceOnUse" x="4.5" y="6.838" width="934.99" height="105.636">
			<feColorMatrix  type="matrix" values="1 0 0 0 0  0 1 0 0 0  0 0 1 0 0  0 0 0 1 0"/>
		</filter>
	</defs>
	<mask maskUnits="userSpaceOnUse" x="4.5" y="6.838" width="934.99" height="105.636" id="SVGID_2_">
		<g filter="url(#Adobe_OpacityMaskFilter)">
			<g>
				<g>
					<path fill="#FFFFFF" d="M29.515,31.318l14.151,40.992l14.229-40.992h15.202L50.943,87.995H35.579L13.588,31.318H29.515z"/>
					<path fill="#FFFFFF" d="M105.526,77.97H81.028l-3.961,10.025H61.866l24.337-56.677h15.199l23.771,56.677h-15.765L105.526,77.97
						z M101.161,66.651l-7.762-20.215l-7.924,20.215H101.161z"/>
					<path fill="#FFFFFF" d="M144.261,31.318v44.062h24.013v12.614h-38.808V31.318H144.261z"/>
					<path fill="#FFFFFF" d="M188.974,31.318v44.062h24.014v12.614h-38.811V31.318H188.974z"/>
					<path fill="#FFFFFF" d="M263.604,31.318v11.803h-29.915v10.593h27.005v11.725l-27.005,0.078V76.19h30.724v11.805h-45.519
						V31.318H263.604z"/>
					<path fill="#FFFFFF" d="M302.417,69.883v18.112h-14.796V70.288l-20.86-38.97h14.796l13.422,24.337l13.098-24.337h14.795
						L302.417,69.883z"/>
					<path fill="#FFFFFF" d="M405.184,59.615c0,16.899-12.369,28.38-30.723,28.38h-23.853V31.318h24.419
						C392.975,31.318,405.184,42.799,405.184,59.615z M390.064,59.776c0-9.783-6.385-16.413-15.36-16.413h-9.3v32.665h10.025
						C384.001,76.028,390.064,69.479,390.064,59.776z"/>
					<path fill="#FFFFFF" d="M456.451,31.318v11.803h-29.917v10.593h27.007v11.725l-27.007,0.078V76.19h30.724v11.805h-45.52V31.318
						H456.451z"/>
					<path fill="#FFFFFF" d="M475.777,31.318l14.148,40.992l14.23-40.992h15.199l-22.153,56.677h-15.361l-21.993-56.677H475.777z"/>
					<path fill="#FFFFFF" d="M566.256,31.318l-0.08,11.803h-27.493v12.614h25.389v11.806h-25.389v20.454h-14.795V31.318H566.256z"/>
					<path fill="#FFFFFF" d="M616.872,31.318v11.803h-29.915v10.593h27.005v11.725l-27.005,0.078V76.19h30.725v11.805h-45.52V31.318
						H616.872z"/>
					<path fill="#FFFFFF" d="M646.709,42.718c-3.556,0-5.902,1.293-5.902,3.88c0,9.38,29.836,4.043,29.836,24.419
						c0,11.562-10.188,17.463-22.801,17.463c-9.459,0-19.323-3.477-26.115-9.056l5.74-11.562c5.821,5.014,14.633,8.573,20.535,8.573
						c4.368,0,7.117-1.618,7.117-4.611c0-9.619-29.834-3.799-29.834-23.85c0-10.593,8.975-17.303,22.638-17.303
						c8.328,0,16.736,2.586,22.639,6.388l-5.579,11.722C659,45.388,651.399,42.718,646.709,42.718z"/>
					<path fill="#FFFFFF" d="M721.017,31.318v12.206H704.04v44.471h-14.796V43.524h-16.819V31.318H721.017z"/>
					<path fill="#FFFFFF" d="M773.9,47.729c0-3.07-2.344-4.851-6.47-4.851c-4.608,0-10.43,2.748-15.684,7.194l-5.577-10.912
						c7.275-5.337,15.197-8.571,23.446-8.571c11.48,0,19.807,5.984,19.807,14.956c0,6.146-4.688,12.531-10.993,18.922
						l-11.643,11.642h24.253v11.886h-43.174l-0.082-9.783l20.617-21.184C771.557,53.794,773.9,50.154,773.9,47.729z"/>
					<path fill="#FFFFFF" d="M840.363,59.615c0,18.516-7.923,28.783-22.153,28.783c-14.393,0-22.233-10.268-22.233-28.783
						s7.841-28.702,22.233-28.702C832.44,30.913,840.363,41.1,840.363,59.615z M810.124,59.615c0,12.937,2.346,18.354,8.086,18.354
						c5.661,0,8.004-5.418,8.004-18.354c0-13.018-2.343-18.354-8.004-18.354C812.47,41.261,810.124,46.598,810.124,59.615z"/>
					<path fill="#FFFFFF" d="M871.85,31.318v56.677h-14.797V43.444h-10.916V31.318H871.85z"/>
					<path fill="#FFFFFF" d="M926.948,31.237v10.268l-21.346,46.49h-15.604l20.697-44.791h-15.847v7.923h-13.098v-19.89H926.948z"/>
				</g>
			</g>
		</g>
	</mask>
	<linearGradient id="SVGID_3_" gradientUnits="userSpaceOnUse" x1="4.5" y1="59.6553" x2="939.4902" y2="59.6553">
		<stop  offset="0.0478" style="stop-color:#E5464B"/>
		<stop  offset="0.539" style="stop-color:#C1DF9C"/>
		<stop  offset="0.7844" style="stop-color:#A3D6E3"/>
		<stop  offset="1" style="stop-color:#A190C4"/>
	</linearGradient>
	<rect x="4.5" y="6.838" mask="url(#SVGID_2_)" fill="url(#SVGID_3_)" width="934.99" height="105.636"/>
	<g>
		<path fill="#767676" d="M131.419,132.816c2.021,0,4.042,0.017,6.062-0.012c0.457-0.008,0.612,0.167,0.66,0.575
			c1.012,8.505-4.358,14.476-11.579,15.172c-6.449,0.621-11.484-1.837-14.812-7.365c-4.14-6.883-1.409-15.97,5.738-19.845
			c5.293-2.868,12.148-2.37,16.639,1.705c0.384,0.348,0.497,0.561,0.05,0.955c-0.676,0.6-1.311,1.251-1.922,1.918
			c-0.325,0.355-0.523,0.336-0.892,0.031c-4.087-3.386-10.036-3.273-13.802,0.315c-3.053,2.908-4.056,6.521-3.012,10.565
			c1.044,4.045,3.702,6.69,7.81,7.571c3.743,0.805,7.153,0.021,9.86-2.901c1.013-1.095,1.451-2.459,1.781-3.874
			c0.117-0.502,0.022-0.688-0.551-0.682c-2.67,0.03-5.342,0-8.013,0.025c-0.53,0.005-0.739-0.117-0.713-0.685
			c0.046-0.949,0.035-1.904,0.003-2.855c-0.018-0.487,0.142-0.633,0.629-0.625C127.378,132.831,129.398,132.816,131.419,132.816z"/>
		<path fill="#767676" d="M74.342,132.816c1.996,0,3.993,0.017,5.989-0.012c0.509-0.006,0.662,0.157,0.727,0.658
			c0.287,2.252,0.106,4.472-0.645,6.594c-1.737,4.903-5.326,7.707-10.397,8.422c-6.206,0.876-11.26-1.303-14.846-6.469
			c-4.973-7.166-2.115-17.285,5.989-21.012c5.58-2.566,10.919-1.98,15.775,1.95c0.515,0.417,0.594,0.693,0.049,1.157
			c-0.651,0.556-1.246,1.184-1.824,1.818c-0.326,0.357-0.527,0.333-0.891,0.025c-4.149-3.509-10.436-3.238-14.146,0.658
			c-2.86,3.003-3.732,6.595-2.569,10.558c1.137,3.871,3.751,6.406,7.713,7.239c3.85,0.811,7.34-0.002,10.036-3.111
			c0.976-1.122,1.359-2.512,1.664-3.928c0.121-0.562-0.303-0.399-0.557-0.399c-2.646-0.01-5.294-0.032-7.941,0.012
			c-0.688,0.012-0.868-0.183-0.825-0.846c0.061-0.902,0.045-1.812,0.004-2.716c-0.021-0.506,0.159-0.615,0.634-0.609
			C70.3,132.831,72.32,132.816,74.342,132.816z"/>
		<path fill="#777777" d="M84.431,134.077c0-4.363,0.015-8.727-0.016-13.091c-0.005-0.631,0.175-0.766,0.775-0.759
			c2.833,0.036,5.666-0.022,8.496,0.036c3.164,0.067,6.094,0.94,8.593,2.953c3.059,2.463,4.499,5.768,4.799,9.609
			c0.154,1.979-0.007,3.942-0.609,5.849c-1.538,4.862-4.865,7.755-9.789,8.886c-1.25,0.288-2.523,0.386-3.8,0.393
			c-2.601,0.018-5.2-0.008-7.8,0.018c-0.525,0.006-0.663-0.144-0.66-0.662C84.438,142.897,84.431,138.488,84.431,134.077z
			 M88.665,134.033c0,3.018-0.002,6.035,0.004,9.055c0,0.273-0.12,0.65,0.385,0.64c2.225-0.046,4.467,0.189,6.669-0.231
			c3.655-0.699,6.021-2.82,6.878-6.501c0.379-1.622,0.405-3.26,0.18-4.91c-0.537-3.942-3.081-6.651-6.981-7.383
			c-2.16-0.405-4.349-0.224-6.527-0.278c-0.494-0.014-0.62,0.143-0.617,0.623C88.676,128.042,88.665,131.038,88.665,134.033z"/>
		<path fill="#767676" d="M160.826,143.094c0.675-1.916,1.35-3.835,2.023-5.752c1.674-4.77,3.354-9.536,5.009-14.312
			c0.157-0.455,0.368-0.612,0.842-0.587c0.765,0.041,1.536,0.042,2.3,0.001c0.604-0.032,0.697,0.127,0.486,0.696
			c-1.569,4.263-3.113,8.536-4.662,12.809c-1.385,3.814-2.773,7.626-4.142,11.444c-0.153,0.431-0.333,0.642-0.832,0.604
			c-0.74-0.052-1.487-0.051-2.228,0c-0.5,0.036-0.673-0.175-0.823-0.606c-2.311-6.609-4.639-13.213-6.963-19.816
			c-0.53-1.509-1.048-3.023-1.597-4.526c-0.166-0.455-0.1-0.624,0.418-0.603c0.789,0.032,1.581,0.041,2.368-0.004
			c0.509-0.027,0.722,0.152,0.883,0.631c1.943,5.828,3.908,11.648,5.87,17.47c0.288,0.853,0.586,1.702,0.877,2.553
			C160.713,143.095,160.77,143.095,160.826,143.094z"/>
		<path fill="#767676" d="M242.13,137.57c0.425-2.689-1.994-4.756-4.57-4.697c-1.647,0.039-2.962,0.695-3.984,1.942
			c-0.267,0.323-0.423,0.29-0.719,0.09c-0.615-0.415-1.238-0.822-1.888-1.178c-0.487-0.266-0.536-0.484-0.166-0.915
			c1.229-1.426,2.735-2.354,4.593-2.677c1.929-0.336,3.835-0.311,5.682,0.424c2.832,1.126,4.169,3.327,4.239,6.272
			c0.085,3.527,0.012,7.059,0.031,10.587c0.002,0.465-0.142,0.598-0.592,0.575c-0.694-0.034-1.393-0.03-2.088-0.001
			c-0.408,0.017-0.521-0.139-0.505-0.523c0.026-0.594,0.007-1.19,0.007-1.824c-0.301,0.065-0.378,0.275-0.492,0.43
			c-2.802,3.761-8.701,2.946-10.945-0.401c-1.82-2.713-0.846-6.616,2.125-8.042c2.877-1.38,5.829-1.293,8.784-0.21
			c0.131,0.048,0.256,0.109,0.384,0.162C242.044,137.591,242.071,137.579,242.13,137.57z M238.195,139.314
			c-1.437-0.042-2.671,0.194-3.731,1.016c-1.825,1.409-1.603,3.77,0.447,4.826c2.896,1.49,7.022-0.869,7.251-4.126
			c0.033-0.478-0.145-0.726-0.537-0.927C240.506,139.53,239.318,139.279,238.195,139.314z"/>
		<path fill="#767676" d="M209.025,145.528c-0.52,0.565-0.881,1.02-1.305,1.405c-1.949,1.781-4.256,1.986-6.643,1.26
			c-2.251-0.686-3.801-2.166-4.293-4.575c-0.511-2.498,0.76-5.039,3.106-6.078c2.788-1.239,5.63-1.19,8.46-0.155
			c0.597,0.219,0.696,0.105,0.682-0.475c-0.056-2.248-1.974-3.979-4.477-4.031c-1.672-0.035-3.03,0.615-4.076,1.882
			c-0.305,0.366-0.493,0.338-0.829,0.109c-0.612-0.416-1.233-0.829-1.882-1.185c-0.441-0.243-0.48-0.432-0.153-0.818
			c0.986-1.158,2.151-2.045,3.626-2.47c2.363-0.683,4.714-0.695,7.003,0.303c2.574,1.122,3.828,3.208,3.905,5.916
			c0.105,3.618,0.023,7.24,0.037,10.86c0.001,0.386-0.094,0.534-0.5,0.517c-0.719-0.029-1.439-0.028-2.158,0
			c-0.403,0.017-0.526-0.13-0.51-0.519C209.045,146.88,209.025,146.283,209.025,145.528z M205.146,139.315
			c-1.668-0.054-3.069,0.244-4.197,1.333c-1.22,1.178-1.164,2.961,0.136,4.036c1.379,1.14,2.954,1.217,4.521,0.569
			c1.813-0.747,3.042-2.068,3.392-4.091c0.103-0.597-0.139-0.896-0.642-1.132C207.285,139.532,206.169,139.278,205.146,139.315z"/>
		<path fill="#767676" d="M187.215,148.557c-2.832-0.084-5.305-1.456-6.833-4.407c-0.24-0.462-0.181-0.673,0.326-0.844
			c0.613-0.206,1.21-0.474,1.788-0.765c0.435-0.217,0.624-0.105,0.844,0.312c1.27,2.42,3.602,3.291,6.178,2.452
			c0.303-0.099,0.596-0.266,0.855-0.454c1.249-0.898,1.24-2.338-0.025-3.224c-0.654-0.459-1.409-0.689-2.178-0.886
			c-1.366-0.353-2.768-0.601-4.081-1.138c-1.459-0.597-2.727-1.435-3.241-3.034c-0.69-2.144,0.257-4.4,2.305-5.584
			c2.764-1.599,6.804-1.355,9.351,0.555c0.701,0.525,1.221,1.197,1.658,1.947c0.199,0.345,0.229,0.58-0.237,0.712
			c-0.333,0.093-0.645,0.261-0.965,0.393c-0.451,0.186-0.902,0.517-1.351,0.512c-0.459-0.007-0.565-0.65-0.885-0.97
			c-1.388-1.379-4.181-1.683-5.749-0.599c-1.395,0.963-1.287,2.434,0.259,3.138c1.272,0.578,2.664,0.784,4.005,1.146
			c1.235,0.333,2.442,0.721,3.5,1.482c2.277,1.644,2.612,4.928,0.692,6.98C191.864,147.957,189.865,148.535,187.215,148.557z"/>
		<path fill="#DB4F43" d="M23.361,117.106c1.901-0.015,3.803-0.016,5.703-0.054c0.413-0.008,0.495,0.279,0.636,0.524
			c2.752,4.751,5.499,9.502,8.247,14.255c0.29,0.502,0.589,0.998,0.861,1.509c0.499,0.933,0.606,1.92,0.118,2.868
			c-0.689,1.334-1.426,2.646-2.266,3.894c-2.263-3.875-4.524-7.751-6.787-11.627C27.786,124.639,25.541,120.892,23.361,117.106z"/>
		<path fill="#169D5C" d="M23.402,152.69c-2.102,0-4.203,0-6.402,0c0.289-0.508,0.534-0.946,0.785-1.38
			c3.042-5.257,6.083-10.514,9.128-15.77c0.104-0.179,0.224-0.348,0.336-0.521c0.335,0.551,0.695,1.088,0.999,1.656
			c0.695,1.303,1.572,2.503,2.165,3.862C28.075,144.59,25.738,148.641,23.402,152.69z"/>
		<g>
			<polygon fill="#4987F1" points="24.725,130.44 24.725,130.436 24.72,130.43 			"/>
			<path fill="#4987F1" d="M29.874,128.476c-2.088-3.837-4.333-7.584-6.513-11.369c-2.096,0-4.192,0-6.326,0
				c0.043,0.112,0.062,0.201,0.107,0.277c2.471,4.257,9.576,16.387,10.106,17.637c0.335,0.551,0.695,1.088,0.999,1.656
				c0.695,1.303,1.572,2.503,2.165,3.862c0.774,1.008,1.297,2.168,1.961,3.245c0.374,0.609,0.72,1.236,1.08,1.856
				c1.146-1.803,2.217-3.647,3.207-5.538C34.398,136.228,32.137,132.352,29.874,128.476z"/>
		</g>
		<path fill="#767676" d="M215.908,135.236c0-4.013,0.018-8.028-0.017-12.041c-0.004-0.638,0.187-0.801,0.782-0.752
			c0.623,0.051,1.254,0.041,1.877,0.001c0.49-0.03,0.631,0.129,0.625,0.62c-0.025,2.272-0.012,4.548-0.012,6.821
			c0,5.776-0.012,11.555,0.018,17.332c0.003,0.664-0.2,0.831-0.812,0.778c-0.576-0.05-1.163-0.05-1.738,0
			c-0.573,0.051-0.74-0.129-0.735-0.718c0.028-3.387,0.013-6.774,0.013-10.162C215.908,136.49,215.908,135.864,215.908,135.236z"/>
		<path fill="#777777" d="M173.718,139.275c0-2.694,0.02-5.389-0.015-8.084c-0.007-0.598,0.174-0.757,0.742-0.716
			c0.671,0.049,1.348,0.031,2.021,0.005c0.407-0.016,0.567,0.093,0.567,0.538c-0.015,5.482-0.015,10.963,0,16.444
			c0,0.451-0.168,0.546-0.571,0.53c-0.671-0.027-1.349-0.045-2.018,0.003c-0.565,0.043-0.75-0.107-0.741-0.708
			C173.738,144.616,173.718,141.945,173.718,139.275z"/>
		<path fill="#FCBF0B" d="M30.413,140.539c0.774,1.008,1.297,2.168,1.961,3.245c0.374,0.609,0.72,1.236,1.08,1.856
			c-1.305,2.284-2.613,4.567-3.91,6.856c-0.11,0.194-0.255,0.231-0.452,0.23c-1.896-0.015-3.793-0.024-5.689-0.037
			C25.738,148.641,28.075,144.59,30.413,140.539z"/>
		<path fill="#767676" d="M223.462,139.264c0-2.646,0.026-5.294-0.02-7.939c-0.012-0.7,0.205-0.879,0.855-0.817
			c0.576,0.056,1.163,0.049,1.739,0.002c0.56-0.046,0.701,0.157,0.697,0.702c-0.021,3.713-0.011,7.428-0.011,11.143
			c0,1.695-0.012,3.389,0.008,5.084c0.005,0.414-0.104,0.576-0.544,0.557c-0.717-0.033-1.439-0.036-2.157,0.001
			c-0.461,0.023-0.581-0.132-0.578-0.583C223.473,144.696,223.462,141.979,223.462,139.264z"/>
		<path fill="#777777" d="M225.137,122.179c1.294,0.017,2.302,1.028,2.289,2.3c-0.011,1.295-1.081,2.338-2.369,2.312
			c-1.304-0.027-2.31-1.08-2.283-2.39C222.798,123.143,223.839,122.162,225.137,122.179z"/>
		<path fill="#777777" d="M173.032,124.479c-0.003-1.297,1.04-2.312,2.364-2.3c1.279,0.012,2.312,1.036,2.305,2.292
			c-0.005,1.248-1.043,2.295-2.299,2.319C174.115,126.814,173.033,125.76,173.032,124.479z"/>
		<path fill="#4987F1" d="M24.88,130.705c0.041,0.053,0.083,0.106,0.124,0.159C24.963,130.812,24.921,130.758,24.88,130.705z"/>
	</g>
	<g>
		<g>
			<path fill="#767676" d="M319.527,123.975c-0.963,1.004-1.843,1.923-2.752,2.871c-0.361-0.274-0.708-0.561-1.076-0.817
				c-6.474-4.502-15.395-0.597-16.512,7.228c-0.832,5.804,2.662,10.875,8.391,12.075c3.686,0.771,6.949-0.046,9.601-2.848
				c1.242-1.313,1.806-2.903,2.009-4.79c-0.316,0-0.564,0-0.814,0c-2.598,0-5.195-0.016-7.792,0.014
				c-0.567,0.006-0.769-0.155-0.742-0.73c0.04-0.907,0.025-1.818,0.007-2.728c-0.011-0.446,0.16-0.609,0.608-0.608
				c4.07,0.01,8.138,0.001,12.208,0.021c0.188,0.001,0.527,0.202,0.542,0.338c0.313,2.814,0.093,5.572-1.081,8.187
				c-1.667,3.71-4.715,5.787-8.474,6.894c-4.624,1.357-8.844,0.254-12.73-2.403c-3.017-2.061-5.122-4.81-5.794-8.44
				c-1.439-7.785,1.848-14.697,10.252-17.379c5.071-1.619,9.635-0.557,13.712,2.796
				C319.256,123.789,319.436,123.906,319.527,123.975z"/>
			<path fill="#767676" d="M376.678,137.693c-0.295,0-0.547,0-0.801,0c-2.598,0-5.196-0.014-7.793,0.011
				c-0.545,0.006-0.72-0.171-0.699-0.704c0.035-0.908,0.021-1.818,0.005-2.728c-0.009-0.422,0.116-0.633,0.585-0.632
				c4.092,0.01,8.184,0.002,12.274,0.022c0.176,0.001,0.487,0.226,0.506,0.376c0.399,3.118,0.03,6.136-1.444,8.94
				c-1.732,3.302-4.627,5.108-8.128,6.056c-8.12,2.199-16.501-2.707-18.429-10.771c-1.974-8.243,3.507-16.456,11.897-17.83
				c4.575-0.749,8.669,0.253,12.172,3.377c0.096,0.086,0.201,0.163,0.244,0.198c-0.937,0.949-1.838,1.865-2.634,2.674
				c-1.263-0.658-2.495-1.506-3.856-1.976c-6.329-2.179-12.952,2.079-13.862,8.708c-0.715,5.207,2.516,10.724,8.406,11.913
				c3.697,0.746,6.945-0.049,9.612-2.824c1.104-1.15,1.667-2.556,1.938-4.097C376.707,138.204,376.678,137.989,376.678,137.693z"/>
			<path fill="#767676" d="M326.816,148.818c0-9.286,0-18.517,0-27.902c0.919,0,1.818-0.006,2.718,0.001
				c2.357,0.019,4.719-0.027,7.072,0.079c7.818,0.354,11.951,5.686,12.746,11.463c0.507,3.691,0.034,7.229-2.036,10.389
				c-2.28,3.484-5.545,5.493-9.73,5.73c-3.451,0.197-6.915,0.192-10.372,0.274C327.108,148.855,327.002,148.835,326.816,148.818z
				 M331.019,144.727c2.727-0.193,5.417,0.066,8.048-0.598c2.855-0.723,4.709-2.525,5.654-5.283c0.798-2.33,0.86-4.705,0.277-7.088
				c-0.822-3.354-2.885-5.601-6.305-6.19c-2.477-0.428-5.026-0.419-7.545-0.601c-0.033-0.002-0.072,0.04-0.13,0.074
				C331.019,131.569,331.019,138.112,331.019,144.727z"/>
			<path fill="#767676" d="M440.777,140.643c-4.618,0-9.198,0-13.756,0c-0.532,1.665,0.816,4.176,2.783,5.132
				c2.49,1.21,5.396,1.102,7.742-2.445c0.908,0.44,1.827,0.889,2.859,1.389c-0.378,0.559-0.677,1.077-1.049,1.54
				c-3.393,4.219-11.229,4.524-14.386-0.801c-2.145-3.62-2.255-8.178,0.673-11.762c2.248-2.753,5.166-3.424,8.516-2.789
				c3.944,0.748,5.829,3.558,6.36,7.225C440.637,138.939,440.689,139.759,440.777,140.643z M437.085,137.872
				c0.101-2.267-2.046-4.162-4.71-4.223c-2.678-0.062-5.136,1.919-5.159,4.223C430.506,137.872,433.797,137.872,437.085,137.872z"/>
			<path fill="#767676" d="M496.705,140.043c0.017,4.905-2.69,8.355-7.482,9.23c-5.193,0.946-9.771-2.371-10.454-7.598
				c-0.209-1.604-0.186-3.187,0.263-4.754c0.97-3.392,4.369-6.055,7.908-6.216c3.968-0.183,6.969,1.362,8.812,4.942
				C496.457,137.019,496.699,138.51,496.705,140.043z M493.501,140.165c-0.053-0.491-0.095-0.986-0.165-1.477
				c-0.4-2.797-2.709-4.938-5.424-5.038c-2.732-0.1-5.247,1.82-5.803,4.573c-0.205,1.017-0.229,2.107-0.12,3.143
				c0.383,3.567,3.925,5.854,7.361,4.83C491.844,145.452,493.461,143.084,493.501,140.165z"/>
			<path fill="#767676" d="M409.97,123.195c0,1.035,0,1.982,0,3.025c-3.858,0-7.715,0-11.621,0
				c-0.015,0.322-0.034,0.553-0.034,0.785c-0.003,2.314,0.019,4.633-0.015,6.947c-0.009,0.609,0.144,0.815,0.784,0.809
				c2.964-0.033,5.93-0.016,8.895-0.016c0.256,0,0.512,0,0.806,0c0,1.025,0,1.988,0,3.037c-3.466,0-6.935,0-10.464,0
				c0,3.711,0,7.336,0,11.049c-1.024,0-1.99,0.01-2.954-0.012c-0.098-0.002-0.243-0.162-0.273-0.275
				c-0.051-0.183-0.029-0.385-0.029-0.58c0-7.965,0-15.93,0-23.895c0-0.875,0.003-0.875,0.884-0.875c4.414,0,8.831,0,13.245,0
				C409.428,123.195,409.664,123.195,409.97,123.195z"/>
			<path fill="#767676" d="M463.409,133.455c0.351-0.312,0.698-0.624,1.05-0.933c2.318-2.039,5.618-2.431,8.208-0.987
				c1.874,1.045,2.826,2.729,2.899,4.771c0.146,3.999,0.111,8.005,0.161,12.008c0.003,0.34-0.131,0.466-0.453,0.464
				c-0.802-0.005-1.602-0.013-2.403,0.002c-0.516,0.011-0.449-0.336-0.449-0.659c0.001-3.334,0.002-6.668-0.002-10.001
				c-0.001-0.367,0.005-0.741-0.059-1.1c-0.264-1.51-0.975-2.673-2.547-3.119c-1.789-0.51-3.438-0.316-4.799,1.063
				c-1.122,1.135-1.612,2.544-1.621,4.118c-0.014,2.986-0.018,5.974,0.01,8.96c0.005,0.56-0.13,0.788-0.717,0.747
				c-0.646-0.045-1.299-0.021-1.947-0.009c-0.366,0.007-0.546-0.095-0.544-0.513c0.01-5.477,0.01-10.953,0-16.43
				c-0.002-0.396,0.138-0.542,0.524-0.533c0.67,0.015,1.343,0.015,2.012,0c0.382-0.008,0.55,0.122,0.527,0.527
				c-0.029,0.514-0.008,1.031-0.008,1.546C463.305,133.403,463.357,133.43,463.409,133.455z"/>
			<path fill="#767676" d="M457.029,134.768c-0.829,0.345-1.614,0.703-2.427,0.985c-0.178,0.062-0.523-0.086-0.669-0.249
				c-0.925-1.035-2.013-1.777-3.422-1.918c-1.311-0.129-2.498,0.223-3.438,1.17c-0.862,0.869-0.471,2.247,0.785,2.698
				c1.014,0.364,2.068,0.61,3.099,0.929c1.092,0.338,2.217,0.606,3.252,1.074c2.006,0.901,3.259,2.401,3.2,4.729
				c-0.033,1.276-0.602,2.333-1.499,3.207c-3.209,3.123-10.41,2.953-12.881-2.468c-0.062-0.135-0.106-0.277-0.189-0.498
				c0.934-0.405,1.852-0.805,2.798-1.218c0.204,0.33,0.379,0.624,0.563,0.911c1.469,2.272,3.916,3.005,6.388,1.919
				c0.992-0.436,1.533-1.121,1.471-1.933c-0.077-1.017-0.643-1.673-1.604-1.979c-1.891-0.601-3.793-1.163-5.676-1.793
				c-1.613-0.54-2.867-1.498-3.339-3.239c-0.521-1.926,0.327-4.03,2.086-5.173c2.804-1.821,7.288-1.578,9.882,0.533
				C456.164,133.07,456.746,133.885,457.029,134.768z"/>
			<path fill="#767676" d="M423.336,131.175c-0.299,0.955-0.561,1.864-0.882,2.754c-0.049,0.133-0.369,0.229-0.568,0.24
				c-0.794,0.044-1.618-0.079-2.38,0.09c-2.259,0.501-3.756,2.523-3.765,4.964c-0.012,2.921-0.003,5.84-0.003,8.762
				c0,0.254,0,0.51,0,0.809c-1.072,0-2.079,0-3.198,0c0-0.207,0-0.433,0-0.658c0-5.365,0.009-10.728-0.014-16.093
				c-0.002-0.556,0.124-0.792,0.711-0.743c0.539,0.043,1.083,0.036,1.621,0c0.543-0.036,0.799,0.116,0.742,0.716
				c-0.052,0.555-0.011,1.117-0.011,1.914C417.654,131.3,420.081,130.151,423.336,131.175z"/>
		</g>
		<path fill="#DB4F43" d="M265.705,117.106c1.901-0.015,3.803-0.016,5.704-0.054c0.413-0.008,0.493,0.279,0.636,0.524
			c2.751,4.751,5.498,9.502,8.246,14.255c0.289,0.502,0.59,0.998,0.862,1.509c0.497,0.933,0.605,1.92,0.116,2.868
			c-0.689,1.334-1.425,2.646-2.265,3.894c-2.263-3.875-4.523-7.751-6.785-11.627C270.13,124.639,267.884,120.892,265.705,117.106z"
			/>
		<path fill="#169D5C" d="M265.745,152.69c-2.101,0-4.202,0-6.401,0c0.289-0.508,0.535-0.946,0.786-1.38
			c3.042-5.257,6.083-10.514,9.127-15.77c0.104-0.179,0.224-0.348,0.337-0.521c0.334,0.551,0.694,1.088,0.998,1.656
			c0.695,1.303,1.571,2.503,2.165,3.862C270.419,144.59,268.082,148.641,265.745,152.69z"/>
		<g>
			<polygon fill="#4987F1" points="267.068,130.44 267.068,130.436 267.062,130.43 			"/>
			<path fill="#4987F1" d="M272.22,128.476c-2.09-3.837-4.336-7.584-6.515-11.369c-2.096,0-4.191,0-6.327,0
				c0.043,0.112,0.064,0.201,0.109,0.277c2.471,4.257,9.575,16.387,10.106,17.637c0.334,0.551,0.694,1.088,0.998,1.656
				c0.695,1.303,1.571,2.503,2.165,3.862c0.774,1.008,1.297,2.168,1.96,3.245c0.375,0.609,0.722,1.236,1.081,1.856
				c1.146-1.803,2.216-3.647,3.207-5.538C276.742,136.228,274.481,132.352,272.22,128.476z"/>
		</g>
		<path fill="#FCBF0B" d="M272.757,140.539c0.774,1.008,1.297,2.168,1.96,3.245c0.375,0.609,0.722,1.236,1.081,1.856
			c-1.306,2.284-2.612,4.567-3.909,6.856c-0.112,0.194-0.254,0.231-0.453,0.23c-1.896-0.015-3.793-0.024-5.689-0.037
			C268.082,148.641,270.419,144.59,272.757,140.539z"/>
	</g>
</g>
<g id="Layer_3">
</g>
<g id="Layer_2" display="none">
</g>
</svg>
