<?xml version="1.0" encoding="UTF-8" standalone="no"?>
<!-- Generator: Adobe Illustrator 16.0.0, SVG Export Plug-In . SVG Version: 6.00 Build 0)  -->

<svg
   xmlns:dc="http://purl.org/dc/elements/1.1/"
   xmlns:cc="http://creativecommons.org/ns#"
   xmlns:rdf="http://www.w3.org/1999/02/22-rdf-syntax-ns#"
   xmlns:svg="http://www.w3.org/2000/svg"
   xmlns="http://www.w3.org/2000/svg"
   xmlns:sodipodi="http://sodipodi.sourceforge.net/DTD/sodipodi-0.dtd"
   xmlns:inkscape="http://www.inkscape.org/namespaces/inkscape"
   version="1.1"
   x="0px"
   y="0px"
   width="580"
   height="84.396004"
   viewBox="0 0 580 84.396007"
   enable-background="new 0 0 768 86.839"
   xml:space="preserve"
   id="svg62"
   sodipodi:docname="logo-navbar-left.svg"
   inkscape:version="0.92.1 r15371"><metadata
     id="metadata68"><rdf:RDF><cc:Work
         rdf:about=""><dc:format>image/svg+xml</dc:format><dc:type
           rdf:resource="http://purl.org/dc/dcmitype/StillImage" /><dc:title></dc:title></cc:Work></rdf:RDF></metadata><defs
     id="defs66"><defs
       id="defs5"><filter
         height="84.396004"
         width="747"
         y="0"
         x="11.5"
         filterUnits="userSpaceOnUse"
         id="Adobe_OpacityMaskFilter"><feColorMatrix
           id="feColorMatrix2"
           values="1 0 0 0 0  0 1 0 0 0  0 0 1 0 0  0 0 0 1 0"
           type="matrix" /></filter></defs><mask
       id="SVGID_2_"
       height="84.396"
       width="747"
       y="0"
       x="11.5"
       maskUnits="userSpaceOnUse"><g
         style="filter:url(#Adobe_OpacityMaskFilter)"
         id="g45"><g
           id="g43"><g
             id="g41"><path
               style="fill:#ffffff"
               inkscape:connector-curvature="0"
               id="path7"
               d="m 31.485,19.558 11.306,32.75 11.368,-32.75 h 12.146 l -17.7,45.281 H 36.33 L 18.761,19.558 Z" /><path
               style="fill:#ffffff"
               inkscape:connector-curvature="0"
               id="path9"
               d="M 92.214,56.83 H 72.642 l -3.165,8.009 H 57.332 L 76.775,19.558 H 88.919 L 107.91,64.839 H 95.315 Z M 88.727,47.786 82.526,31.637 76.195,47.786 Z" /><path
               style="fill:#ffffff"
               inkscape:connector-curvature="0"
               id="path11"
               d="m 123.16,19.558 v 35.204 h 19.185 V 64.839 H 111.34 V 19.558 Z" /><path
               style="fill:#ffffff"
               inkscape:connector-curvature="0"
               id="path13"
               d="m 158.883,19.558 v 35.204 h 19.186 V 64.839 H 147.062 V 19.558 Z" /><path
               style="fill:#ffffff"
               inkscape:connector-curvature="0"
               id="path15"
               d="m 218.508,19.558 v 9.431 h -23.9 v 8.462 h 21.575 v 9.367 l -21.575,0.063 v 8.527 h 24.547 v 9.431 H 182.788 V 19.558 Z" /><path
               style="fill:#ffffff"
               inkscape:connector-curvature="0"
               id="path17"
               d="m 249.518,50.369 v 14.47 H 237.697 V 50.692 L 221.03,19.558 h 11.821 l 10.723,19.443 10.465,-19.443 h 11.82 z" /><path
               style="fill:#ffffff"
               inkscape:connector-curvature="0"
               id="path19"
               d="m 331.622,42.165 c 0,13.502 -9.883,22.674 -24.546,22.674 H 288.02 V 19.558 h 19.509 c 14.338,0 24.093,9.171 24.093,22.607 z m -12.08,0.13 c 0,-7.816 -5.101,-13.113 -12.271,-13.113 h -7.43 v 26.097 h 8.01 c 6.847,-0.001 11.691,-5.232 11.691,-12.984 z" /><path
               style="fill:#ffffff"
               inkscape:connector-curvature="0"
               id="path21"
               d="m 372.581,19.558 v 9.431 H 348.68 v 8.462 h 21.576 v 9.367 l -21.576,0.063 v 8.527 h 24.546 v 9.431 H 336.859 V 19.558 Z" /><path
               style="fill:#ffffff"
               inkscape:connector-curvature="0"
               id="path23"
               d="m 388.021,19.558 11.304,32.75 11.369,-32.75 h 12.144 L 405.139,64.839 H 392.867 L 375.296,19.558 Z" /><path
               style="fill:#ffffff"
               inkscape:connector-curvature="0"
               id="path25"
               d="m 460.309,19.558 -0.064,9.431 H 438.28 v 10.077 h 20.284 v 9.432 H 438.28 V 64.84 H 426.46 V 19.558 Z" /><path
               style="fill:#ffffff"
               inkscape:connector-curvature="0"
               id="path27"
               d="m 500.748,19.558 v 9.431 h -23.9 v 8.462 h 21.575 v 9.367 l -21.575,0.063 v 8.527 h 24.547 v 9.431 H 465.028 V 19.558 Z" /><path
               style="fill:#ffffff"
               inkscape:connector-curvature="0"
               id="path29"
               d="m 524.586,28.665 c -2.841,0 -4.716,1.034 -4.716,3.101 0,7.493 23.837,3.23 23.837,19.509 0,9.236 -8.139,13.952 -18.216,13.952 -7.558,0 -15.438,-2.777 -20.865,-7.234 l 4.586,-9.238 c 4.651,4.005 11.691,6.849 16.407,6.849 3.489,0 5.686,-1.292 5.686,-3.683 0,-7.687 -23.835,-3.036 -23.835,-19.056 0,-8.463 7.17,-13.823 18.086,-13.823 6.653,0 13.371,2.066 18.087,5.103 l -4.457,9.366 c -4.781,-2.713 -10.853,-4.846 -14.6,-4.846 z" /><path
               style="fill:#ffffff"
               inkscape:connector-curvature="0"
               id="path31"
               d="m 583.953,19.558 v 9.753 H 570.39 V 64.839 H 558.569 V 29.311 h -13.438 v -9.753 z" /><path
               style="fill:#ffffff"
               inkscape:connector-curvature="0"
               id="path33"
               d="m 626.204,32.67 c 0,-2.454 -1.873,-3.876 -5.169,-3.876 -3.682,0 -8.333,2.196 -12.53,5.749 l -4.456,-8.72 c 5.812,-4.264 12.142,-6.847 18.732,-6.847 9.172,0 15.824,4.78 15.824,11.949 0,4.909 -3.746,10.012 -8.783,15.116 l -9.302,9.301 h 19.377 v 9.496 h -34.493 l -0.065,-7.816 16.472,-16.924 c 2.52,-2.583 4.393,-5.491 4.393,-7.428 z" /><path
               style="fill:#ffffff"
               inkscape:connector-curvature="0"
               id="path35"
               d="m 679.304,42.165 c 0,14.793 -6.33,22.996 -17.699,22.996 -11.499,0 -17.763,-8.203 -17.763,-22.996 0,-14.792 6.264,-22.932 17.763,-22.932 11.369,0 17.699,8.14 17.699,22.932 z m -24.159,0 c 0,10.336 1.874,14.665 6.46,14.665 4.522,0 6.395,-4.329 6.395,-14.665 0,-10.399 -1.872,-14.663 -6.395,-14.663 -4.586,0 -6.46,4.264 -6.46,14.663 z" /><path
               style="fill:#ffffff"
               inkscape:connector-curvature="0"
               id="path37"
               d="M 704.459,19.558 V 64.839 H 692.638 V 29.246 h -8.722 v -9.688 z" /><path
               style="fill:#ffffff"
               inkscape:connector-curvature="0"
               id="path39"
               d="m 748.479,19.493 v 8.203 l -17.054,37.143 h -12.467 l 16.536,-35.785 h -12.661 v 6.33 H 712.37 V 19.493 Z" /></g></g></g></mask><linearGradient
       y2="42.1982"
       x2="758.5"
       y1="42.1982"
       x1="11.5"
       gradientUnits="userSpaceOnUse"
       id="SVGID_3_"><stop
         id="stop48"
         style="stop-color:#E5464B"
         offset="0.0478" /><stop
         id="stop50"
         style="stop-color:#C1DF9C"
         offset="0.539" /><stop
         id="stop52"
         style="stop-color:#A3D6E3"
         offset="0.7844" /><stop
         id="stop54"
         style="stop-color:#A190C4"
         offset="1" /></linearGradient></defs><sodipodi:namedview
     pagecolor="#ffffff"
     bordercolor="#666666"
     borderopacity="1"
     objecttolerance="10"
     gridtolerance="10"
     guidetolerance="10"
     inkscape:pageopacity="0"
     inkscape:pageshadow="2"
     inkscape:window-width="1512"
     inkscape:window-height="804"
     id="namedview64"
     showgrid="false"
     fit-margin-top="0"
     fit-margin-left="0"
     fit-margin-right="0"
     fit-margin-bottom="0"
     inkscape:zoom="0.82291667"
     inkscape:cx="486.45153"
     inkscape:cy="33.375321"
     inkscape:window-x="227"
     inkscape:window-y="130"
     inkscape:window-maximized="0"
     inkscape:current-layer="svg62" /><rect
     style="fill:url(#SVGID_3_)"
     y="0"
     id="rect57"
     height="84.396004"
     width="747"
     mask="url(#SVGID_2_)"
     x="11.5"
     transform="translate(-11.5,-1.4892579e-5)" /><g
     id="Layer_3"
     transform="translate(-11.5,-1.4892579e-5)" /><g
     id="Layer_2"
     display="none"
     style="display:none"
     transform="translate(-11.5,-1.4892579e-5)" /></svg>