<?xml version="1.0" encoding="utf-8"?>
<!-- Generator: Adobe Illustrator 16.0.0, SVG Export Plug-In . SVG Version: 6.00 Build 0)  -->
<!DOCTYPE svg PUBLIC "-//W3C//DTD SVG 1.1//EN" "http://www.w3.org/Graphics/SVG/1.1/DTD/svg11.dtd">
<svg version="1.1" xmlns="http://www.w3.org/2000/svg" xmlns:xlink="http://www.w3.org/1999/xlink" x="0px" y="0px" width="768px"
	 height="86.839px" viewBox="0 0 768 86.839" enable-background="new 0 0 768 86.839" xml:space="preserve">
<g id="Layer_1">
	<defs>
		<filter id="Adobe_OpacityMaskFilter" filterUnits="userSpaceOnUse" x="11.5" y="0" width="747" height="84.396">
			<feColorMatrix  type="matrix" values="1 0 0 0 0  0 1 0 0 0  0 0 1 0 0  0 0 0 1 0"/>
		</filter>
	</defs>
	<mask maskUnits="userSpaceOnUse" x="11.5" y="0" width="747" height="84.396" id="SVGID_2_">
		<g filter="url(#Adobe_OpacityMaskFilter)">
			<g>
				<g>
					<path fill="#FFFFFF" d="M31.485,19.558l11.306,32.75l11.368-32.75h12.146L48.605,64.839H36.33L18.761,19.558H31.485z"/>
					<path fill="#FFFFFF" d="M92.214,56.83H72.642l-3.165,8.009H57.332l19.443-45.281h12.144l18.991,45.281H95.315L92.214,56.83z
						 M88.727,47.786l-6.201-16.149l-6.331,16.149H88.727z"/>
					<path fill="#FFFFFF" d="M123.16,19.558v35.204h19.185v10.077H111.34V19.558H123.16z"/>
					<path fill="#FFFFFF" d="M158.883,19.558v35.204h19.186v10.077h-31.007V19.558H158.883z"/>
					<path fill="#FFFFFF" d="M218.508,19.558v9.431h-23.9v8.462h21.575v9.367l-21.575,0.063v8.527h24.547v9.431h-36.367V19.558
						H218.508z"/>
					<path fill="#FFFFFF" d="M249.518,50.369v14.47h-11.821V50.692L221.03,19.558h11.821l10.723,19.443l10.465-19.443h11.82
						L249.518,50.369z"/>
					<path fill="#FFFFFF" d="M331.622,42.165c0,13.502-9.883,22.674-24.546,22.674H288.02V19.558h19.509
						C321.867,19.558,331.622,28.729,331.622,42.165z M319.542,42.295c0-7.816-5.101-13.113-12.271-13.113h-7.43v26.097h8.01
						C314.698,55.278,319.542,50.047,319.542,42.295z"/>
					<path fill="#FFFFFF" d="M372.581,19.558v9.431H348.68v8.462h21.576v9.367l-21.576,0.063v8.527h24.546v9.431h-36.367V19.558
						H372.581z"/>
					<path fill="#FFFFFF" d="M388.021,19.558l11.304,32.75l11.369-32.75h12.144l-17.699,45.281h-12.272l-17.571-45.281H388.021z"/>
					<path fill="#FFFFFF" d="M460.309,19.558l-0.064,9.431h-21.965v10.077h20.284v9.432h-20.284v16.342h-11.82V19.558H460.309z"/>
					<path fill="#FFFFFF" d="M500.748,19.558v9.431h-23.9v8.462h21.575v9.367l-21.575,0.063v8.527h24.547v9.431h-36.367V19.558
						H500.748z"/>
					<path fill="#FFFFFF" d="M524.586,28.665c-2.841,0-4.716,1.034-4.716,3.101c0,7.493,23.837,3.23,23.837,19.509
						c0,9.236-8.139,13.952-18.216,13.952c-7.558,0-15.438-2.777-20.865-7.234l4.586-9.238c4.651,4.005,11.691,6.849,16.407,6.849
						c3.489,0,5.686-1.292,5.686-3.683c0-7.687-23.835-3.036-23.835-19.056c0-8.463,7.17-13.823,18.086-13.823
						c6.653,0,13.371,2.066,18.087,5.103l-4.457,9.366C534.405,30.798,528.333,28.665,524.586,28.665z"/>
					<path fill="#FFFFFF" d="M583.953,19.558v9.753H570.39v35.528h-11.821V29.311h-13.438v-9.753H583.953z"/>
					<path fill="#FFFFFF" d="M626.204,32.67c0-2.454-1.873-3.876-5.169-3.876c-3.682,0-8.333,2.196-12.53,5.749l-4.456-8.72
						c5.812-4.264,12.142-6.847,18.732-6.847c9.172,0,15.824,4.78,15.824,11.949c0,4.909-3.746,10.012-8.783,15.116l-9.302,9.301
						h19.377v9.496h-34.493l-0.065-7.816l16.472-16.924C624.331,37.515,626.204,34.607,626.204,32.67z"/>
					<path fill="#FFFFFF" d="M679.304,42.165c0,14.793-6.33,22.996-17.699,22.996c-11.499,0-17.763-8.203-17.763-22.996
						c0-14.792,6.264-22.932,17.763-22.932C672.974,19.233,679.304,27.373,679.304,42.165z M655.145,42.165
						c0,10.336,1.874,14.665,6.46,14.665c4.522,0,6.395-4.329,6.395-14.665c0-10.399-1.872-14.663-6.395-14.663
						C657.019,27.502,655.145,31.766,655.145,42.165z"/>
					<path fill="#FFFFFF" d="M704.459,19.558v45.281h-11.821V29.246h-8.722v-9.688H704.459z"/>
					<path fill="#FFFFFF" d="M748.479,19.493v8.203l-17.054,37.143h-12.467l16.536-35.785h-12.661v6.33H712.37V19.493H748.479z"/>
				</g>
			</g>
		</g>
	</mask>
	<linearGradient id="SVGID_3_" gradientUnits="userSpaceOnUse" x1="11.5" y1="42.1982" x2="758.5" y2="42.1982">
		<stop  offset="0.0478" style="stop-color:#E5464B"/>
		<stop  offset="0.539" style="stop-color:#C1DF9C"/>
		<stop  offset="0.7844" style="stop-color:#A3D6E3"/>
		<stop  offset="1" style="stop-color:#A190C4"/>
	</linearGradient>
	<rect x="11.5" mask="url(#SVGID_2_)" fill="url(#SVGID_3_)" width="747" height="84.396"/>
</g>
<g id="Layer_3">
</g>
<g id="Layer_2" display="none">
</g>
</svg>
